<?xml version="1.0" encoding="UTF-8" standalone="no"?><!DOCTYPE svg PUBLIC "-//W3C//DTD SVG 1.1//EN" "http://www.w3.org/Graphics/SVG/1.1/DTD/svg11.dtd"><svg width="100%" height="100%" viewBox="0 0 455 350" version="1.1" xmlns="http://www.w3.org/2000/svg" xmlns:xlink="http://www.w3.org/1999/xlink" xml:space="preserve" xmlns:serif="http://www.serif.com/" style="fill-rule:evenodd;clip-rule:evenodd;stroke-linejoin:round;stroke-miterlimit:2;"><rect id="ArtBoard1" x="0" y="0" width="454.167" height="350" style="fill:none;"/><g><path d="M168.575,153.93c-0.006,-17.469 -0.112,-38.165 -0.129,-41.484c-0.071,-13.87 -0.812,-13.857 0.33,-27.68c0.012,-0.145 0.033,-11.461 0.133,-12.512c0.525,-5.531 -0.656,-5.536 0.275,-11.001c0.805,-4.728 -0.453,-9.392 1.62,-9.696c1.532,-0.225 11.924,5.891 13.6,7.259c5.619,4.588 15.922,10.61 19.264,13.874c7.685,7.506 14.684,9.509 20.065,14.476c7.303,6.741 22.622,14.96 26.718,18.928c8.391,8.128 9.69,6.461 18.582,14.602c5.861,5.365 6.498,4.453 12.575,9.518c9.948,8.29 13.919,9.363 10.973,14.112c-2.806,4.524 -25.03,23.405 -27.301,25.334c-11.235,9.544 -10.534,10.302 -22.38,19.08c-3.958,2.933 -1.21,3.803 1.307,7.975c1.996,3.307 24.51,35.053 25.078,35.811c9.657,12.886 10.567,15.344 11.824,17.02c10.139,13.521 27.557,39.064 28.138,41.214c1.537,5.682 -8.246,0.092 -10.09,-0.67c-4.698,-1.941 -4.281,-2.621 -8.199,-4.532c-14.337,-6.994 -14.16,-7.325 -15.417,-7.91c-9.213,-4.281 -9.04,-4.727 -15.141,-12.888c-33.246,-44.468 -32.513,-44.961 -35.721,-48.562c-3.981,-4.468 -3.766,-4.585 -7.242,-9.456c-11.637,-16.311 -13.756,-17.605 -9.299,-22.409c4.201,-4.528 7.523,-7.075 9.239,-8.747c11.241,-10.946 12.17,-9.896 23.049,-21.217c9.215,-9.589 14.435,-10.015 9.638,-13.459c-5.966,-4.283 -7.01,-6.602 -13.927,-11.005c-19.541,-12.437 -26.089,-20.128 -28.872,-22.265c-5.645,-4.335 -11.515,-12.15 -11.51,-6.245c0.003,3.206 0.034,37.664 0.182,40.075c0.102,1.659 0.582,9.474 0.201,20.776c-1.169,34.648 3.929,80.541 -1.567,94.102c-0.239,0.591 -8.016,14.484 -9.128,16.082c-4.123,5.929 -12.911,21.205 -15.766,20.472c-1.239,-0.318 -1.783,-0.722 -0.929,-15.958c0.32,-5.711 -1.084,-12.873 -1.075,-13.809c0.083,-8.311 -0.797,-8.286 0.279,-16.589c0.636,-4.91 -0.915,-4.961 0.365,-13.77c0.907,-6.242 0.297,-6.26 0.256,-78.846Z" style="fill:#354853;"/><path d="M333.97,120.18c-1.417,-0.225 -12.16,-1.933 -13.365,-11.969c-2.393,-19.932 30.013,-22.597 26.788,1.42c-0.878,6.538 1.464,5.976 10.825,18.526c12.934,17.34 22.475,28.236 24.892,31.732c3.548,5.132 5.088,2.46 8.874,2.904c14.196,1.666 15.73,20.538 5.684,25.865c-5.653,2.998 -7.762,1.964 -9.776,2.037c-1.339,0.049 -1.905,-0.369 -7.962,7.712c-32.453,43.301 -34.078,43.17 -33.156,46.674c0.387,1.471 3.461,13.154 -5.892,18.075c-15.291,8.045 -26.844,-10.996 -17.321,-21.511c6.524,-7.202 13.275,-1.783 16.737,-6.631c6.895,-9.656 36.643,-48.231 37.341,-49.579c1.665,-3.214 -2.778,-3.601 -0.332,-13.402c0.527,-2.113 1.348,-2.735 -5.091,-10.824c-15.826,-19.882 -27.426,-34.979 -30.441,-38.717c-2.811,-3.485 -3.402,-2.891 -7.806,-2.311Z" style="fill:#254855;"/><path d="M66.675,176.08c-0.279,6.408 -2.951,7.013 0.816,12.171c31.732,43.463 33.664,48.805 36.942,49.051c1.686,0.126 10.149,-1.488 15.051,7.972c6.815,13.148 -12.24,27.736 -23.017,14.857c-5.912,-7.065 -0.932,-15.215 -1.742,-17.695c-0.179,-0.549 -36.543,-50.854 -37.227,-51.24c-1.865,-1.051 -14.629,0.656 -18.151,-9.57c-0.18,-0.521 -4.928,-18.766 15.325,-18.806c4.362,-0.009 3.57,-1.818 15.481,-16.991c0.803,-1.022 22.113,-28.999 23.095,-30.687c1.449,-2.493 -4.926,-13.21 6.013,-20.14c9.911,-6.279 26.451,4.885 19.604,17.77c-6.676,12.561 -15.659,6.046 -18.03,8.537c-1.517,1.595 -1.138,1.867 -16.763,21.819c-1.519,1.94 -18.35,23.431 -18.719,24.457c-0.776,2.159 -0.167,2.14 0.535,4.268c0.595,1.803 0.44,1.807 0.79,4.227Z" style="fill:#254754;"/></g></svg>